<svg xmlns="http://www.w3.org/2000/svg" viewBox="0 0 1200 630">
  <defs>
    <linearGradient id="bgP10" x1="0%" y1="0%" x2="100%" y2="100%">
      <stop offset="0%" style="stop-color:#0f172a"/>
      <stop offset="100%" style="stop-color:#1e293b"/>
    </linearGradient>
  </defs>
  <rect width="1200" height="630" fill="url(#bgP10)"/>

  <!-- Database cylinders -->
  <g transform="translate(100, 100)">
    <!-- Database 1 -->
    <ellipse cx="80" cy="50" rx="60" ry="20" fill="#3b82f6"/>
    <rect x="20" y="50" width="120" height="120" fill="#3b82f6"/>
    <ellipse cx="80" cy="170" rx="60" ry="20" fill="#2563eb"/>
    <ellipse cx="80" cy="90" rx="60" ry="20" fill="#1d4ed8" opacity="0.5"/>
    <ellipse cx="80" cy="130" rx="60" ry="20" fill="#1d4ed8" opacity="0.5"/>

    <!-- Database 2 -->
    <ellipse cx="200" cy="80" rx="50" ry="18" fill="#10B981"/>
    <rect x="150" y="80" width="100" height="100" fill="#10B981"/>
    <ellipse cx="200" cy="180" rx="50" ry="18" fill="#059669"/>
    <ellipse cx="200" cy="115" rx="50" ry="18" fill="#047857" opacity="0.5"/>
    <ellipse cx="200" cy="150" rx="50" ry="18" fill="#047857" opacity="0.5"/>

    <!-- Database 3 (smaller) -->
    <ellipse cx="300" cy="110" rx="40" ry="15" fill="#8b5cf6"/>
    <rect x="260" y="110" width="80" height="80" fill="#8b5cf6"/>
    <ellipse cx="300" cy="190" rx="40" ry="15" fill="#7c3aed"/>
    <ellipse cx="300" cy="145" rx="40" ry="15" fill="#6d28d9" opacity="0.5"/>

    <!-- Connection lines -->
    <line x1="140" y1="120" x2="150" y2="130" stroke="#fff" stroke-width="2" opacity="0.5"/>
    <line x1="250" y1="140" x2="260" y2="145" stroke="#fff" stroke-width="2" opacity="0.5"/>

    <!-- Checkmark badge -->
    <circle cx="320" cy="90" r="25" fill="#10B981"/>
    <polyline points="307,90 315,98 333,82" stroke="#fff" stroke-width="4" fill="none" stroke-linecap="round"/>
  </g>

  <rect x="500" y="100" width="120" height="35" rx="17" fill="#3b82f6"/>
  <text x="560" y="124" font-family="Arial, sans-serif" font-size="14" fill="#fff" text-anchor="middle">TECHNICAL</text>

  <text x="500" y="200" font-family="Georgia, serif" font-size="44" font-weight="bold" fill="#fff">Database Best</text>
  <text x="500" y="270" font-family="Georgia, serif" font-size="44" font-weight="bold" fill="#3b82f6">Practices</text>

  <text x="500" y="340" font-family="Arial, sans-serif" font-size="20" fill="#94a3b8">Data management fundamentals</text>
  <text x="500" y="370" font-family="Arial, sans-serif" font-size="20" fill="#94a3b8">for growing organizations</text>

  <rect x="500" y="420" width="600" height="1" fill="#374151"/>

  <text x="500" y="480" font-family="Georgia, serif" font-size="24" fill="#3b82f6">We Build Pillars</text>
  <text x="500" y="510" font-family="Arial, sans-serif" font-size="16" fill="#64748b">Works &amp; Insights</text>

  <rect x="0" y="615" width="1200" height="15" fill="#3b82f6"/>
</svg>
