<svg xmlns="http://www.w3.org/2000/svg" viewBox="0 0 1200 630">
  <defs>
    <linearGradient id="bgP4" x1="0%" y1="0%" x2="100%" y2="100%">
      <stop offset="0%" style="stop-color:#0f172a"/>
      <stop offset="100%" style="stop-color:#1e293b"/>
    </linearGradient>
  </defs>
  <rect width="1200" height="630" fill="url(#bgP4)"/>

  <!-- CMS interface mockup -->
  <g transform="translate(80, 120)">
    <rect x="0" y="0" width="320" height="220" rx="12" fill="#1e293b" stroke="#334155" stroke-width="2"/>
    <!-- Browser header -->
    <rect x="0" y="0" width="320" height="35" rx="12" fill="#334155"/>
    <circle cx="20" cy="17" r="6" fill="#ef4444"/>
    <circle cx="40" cy="17" r="6" fill="#f59e0b"/>
    <circle cx="60" cy="17" r="6" fill="#10B981"/>
    <!-- Sidebar -->
    <rect x="10" y="45" width="80" height="165" rx="6" fill="#0f172a"/>
    <rect x="20" y="55" width="60" height="8" rx="4" fill="#3b82f6"/>
    <rect x="20" y="70" width="50" height="6" rx="3" fill="#475569"/>
    <rect x="20" y="85" width="55" height="6" rx="3" fill="#475569"/>
    <rect x="20" y="100" width="45" height="6" rx="3" fill="#475569"/>
    <!-- Content area -->
    <rect x="100" y="45" width="210" height="25" rx="4" fill="#0f172a"/>
    <rect x="100" y="80" width="210" height="120" rx="6" fill="#0f172a"/>
    <rect x="110" y="90" width="120" height="10" rx="3" fill="#64748b"/>
    <rect x="110" y="108" width="180" height="8" rx="3" fill="#475569"/>
    <rect x="110" y="122" width="160" height="8" rx="3" fill="#475569"/>
    <rect x="110" y="136" width="140" height="8" rx="3" fill="#475569"/>
    <rect x="110" y="160" width="80" height="30" rx="6" fill="#3b82f6"/>
  </g>

  <rect x="500" y="100" width="120" height="35" rx="17" fill="#3b82f6"/>
  <text x="560" y="124" font-family="Arial, sans-serif" font-size="14" fill="#fff" text-anchor="middle">TECHNICAL</text>

  <text x="500" y="200" font-family="Georgia, serif" font-size="48" font-weight="bold" fill="#fff">Understanding</text>
  <text x="500" y="270" font-family="Georgia, serif" font-size="48" font-weight="bold" fill="#3b82f6">CMS Systems</text>

  <text x="500" y="340" font-family="Arial, sans-serif" font-size="20" fill="#94a3b8">A guide to content management for</text>
  <text x="500" y="370" font-family="Arial, sans-serif" font-size="20" fill="#94a3b8">nonprofits and creators</text>

  <rect x="500" y="420" width="600" height="1" fill="#374151"/>

  <text x="500" y="480" font-family="Georgia, serif" font-size="24" fill="#3b82f6">We Build Pillars</text>
  <text x="500" y="510" font-family="Arial, sans-serif" font-size="16" fill="#64748b">Works &amp; Insights</text>

  <rect x="0" y="615" width="1200" height="15" fill="#3b82f6"/>
</svg>
