<svg xmlns="http://www.w3.org/2000/svg" viewBox="0 0 1200 630">
  <defs>
    <linearGradient id="bgP6" x1="0%" y1="0%" x2="100%" y2="100%">
      <stop offset="0%" style="stop-color:#0f172a"/>
      <stop offset="100%" style="stop-color:#1e1b4b"/>
    </linearGradient>
    <linearGradient id="futureGrad" x1="0%" y1="0%" x2="100%" y2="0%">
      <stop offset="0%" style="stop-color:#06b6d4"/>
      <stop offset="100%" style="stop-color:#8b5cf6"/>
    </linearGradient>
  </defs>
  <rect width="1200" height="630" fill="url(#bgP6)"/>

  <!-- Futuristic AI/Voice elements -->
  <g transform="translate(80, 120)">
    <!-- Sound waves / AI brain -->
    <circle cx="160" cy="130" r="100" fill="none" stroke="#06b6d4" stroke-width="2" opacity="0.3"/>
    <circle cx="160" cy="130" r="75" fill="none" stroke="#8b5cf6" stroke-width="2" opacity="0.4"/>
    <circle cx="160" cy="130" r="50" fill="none" stroke="#06b6d4" stroke-width="2" opacity="0.5"/>
    <circle cx="160" cy="130" r="25" fill="#8b5cf6"/>

    <!-- AI nodes -->
    <circle cx="60" cy="80" r="10" fill="#06b6d4"/>
    <circle cx="260" cy="80" r="10" fill="#06b6d4"/>
    <circle cx="60" cy="180" r="10" fill="#06b6d4"/>
    <circle cx="260" cy="180" r="10" fill="#06b6d4"/>
    <line x1="70" y1="85" x2="135" y2="115" stroke="#06b6d4" stroke-width="2" opacity="0.5"/>
    <line x1="250" y1="85" x2="185" y2="115" stroke="#06b6d4" stroke-width="2" opacity="0.5"/>
    <line x1="70" y1="175" x2="135" y2="145" stroke="#06b6d4" stroke-width="2" opacity="0.5"/>
    <line x1="250" y1="175" x2="185" y2="145" stroke="#06b6d4" stroke-width="2" opacity="0.5"/>

    <!-- 2026 floating -->
    <rect x="110" y="250" width="100" height="45" rx="8" fill="url(#futureGrad)"/>
    <text x="160" y="282" font-family="Arial, sans-serif" font-size="22" font-weight="bold" fill="#fff" text-anchor="middle">2026</text>
  </g>

  <rect x="500" y="100" width="70" height="35" rx="17" fill="#06b6d4"/>
  <text x="535" y="124" font-family="Arial, sans-serif" font-size="14" fill="#fff" text-anchor="middle">SEO</text>

  <text x="500" y="200" font-family="Georgia, serif" font-size="48" font-weight="bold" fill="#fff">SEO Strategies</text>
  <text x="500" y="270" font-family="Georgia, serif" font-size="48" font-weight="bold" fill="url(#futureGrad)">for 2026</text>

  <text x="500" y="340" font-family="Arial, sans-serif" font-size="20" fill="#94a3b8">AI, voice search &amp; emerging trends</text>
  <text x="500" y="370" font-family="Arial, sans-serif" font-size="20" fill="#94a3b8">in search optimization</text>

  <rect x="500" y="420" width="600" height="1" fill="#374151"/>

  <text x="500" y="480" font-family="Georgia, serif" font-size="24" fill="#06b6d4">We Build Pillars</text>
  <text x="500" y="510" font-family="Arial, sans-serif" font-size="16" fill="#64748b">Works &amp; Insights</text>

  <rect x="0" y="615" width="1200" height="15" fill="url(#futureGrad)"/>
</svg>
